<svg xmlns="http://www.w3.org/2000/svg" version="1.1" xmlns:xlink="http://www.w3.org/1999/xlink" xmlns:svgjs="http://svgjs.dev/svgjs" width="1440" height="560" preserveAspectRatio="none" viewBox="0 0 1440 560"><g mask="url(&quot;#SvgjsMask2542&quot;)" fill="none"><path d="M144.08785199939783 104.42952837908982L157.7372184607744-6.735640604738251-15.835218245655966 28.372894195110973z" fill="rgba(33, 194, 132, 1)" class="triangle-float3"></path><path d="M-37.33333333333333 55.999999999999986L130.66666666666669 149.3333333333333 130.66666666666666-18.666666666666714z" fill="rgba(33, 194, 132, 1)" class="triangle-float1"></path><path d="M133.389,298.473C189.12,297.026,234.115,255.801,259.033,205.93C281.358,161.248,272.399,110.754,249.316,66.459C223.862,17.614,188.367,-31.83,133.389,-35.172C73.84,-38.792,19.108,-1.469,-9.822,50.706C-37.915,101.372,-33.076,162.603,-4.085,212.76C24.879,262.87,75.529,299.975,133.389,298.473" fill="rgba(33, 194, 132, 1)" class="triangle-float2"></path><path d="M1440.132,242.357C1486.499,240.517,1530.595,217.907,1552.316,176.902C1572.854,138.13,1560.55,93.258,1539.503,54.76C1517.307,14.16,1486.367,-26.468,1440.132,-28.303C1391.485,-30.234,1351.121,4.533,1326.09,46.29C1300.201,89.478,1286.076,142.934,1311.393,186.46C1336.604,229.804,1390.028,244.345,1440.132,242.357" fill="rgba(33, 194, 132, 1)" class="triangle-float3"></path><path d="M1504.5818484306333 109.68649784884414L1444.3760329070228-47.155013802685744 1347.7403367791035 169.89231337245457z" fill="rgba(33, 194, 132, 1)" class="triangle-float1"></path><path d="M1468.588726790087 95.4443710957986L1355.7733896637287-60.144223666726226 1284.773521691291 92.11548455543098z" fill="rgba(33, 194, 132, 1)" class="triangle-float3"></path><path d="M20.406,519.785C38.367,519.707,54.793,508.968,62.92,492.951C70.386,478.238,65.799,461.245,57.28,447.116C49.095,433.542,36.254,422.726,20.406,422.442C4.103,422.149,-10.355,431.822,-18.835,445.75C-27.703,460.316,-30.737,478.255,-22.751,493.322C-14.281,509.302,2.32,519.863,20.406,519.785" fill="rgba(33, 194, 132, 1)" class="triangle-float3"></path><path d="M126.121,692.995C170.942,692.719,213.957,676.389,239.691,639.691C270.217,596.16,292.459,539.476,266.191,493.251C239.73,446.687,179.663,438.566,126.121,439.838C75.336,441.044,22.491,455.633,-2.879,499.643C-28.226,543.613,-18.068,598.888,10.099,641.106C35.3,678.878,80.715,693.275,126.121,692.995" fill="rgba(33, 194, 132, 1)" class="triangle-float3"></path><path d="M35.303,537.471C55.187,537.201,74.972,529.167,84.704,511.825C94.262,494.794,89.064,474.779,80.273,457.34C70.21,437.377,57.559,415.943,35.303,413.828C10.06,411.429,-15.666,424.624,-27.384,447.111C-38.442,468.333,-30.119,493.537,-16.479,513.199C-4.833,529.986,14.874,537.749,35.303,537.471" fill="rgba(33, 194, 132, 1)" class="triangle-float3"></path><path d="M1408.1564442095685 594.153077120313L1454.827921752658 407.721094094181 1292.5523829360945 451.2026936714045z" fill="rgba(33, 194, 132, 1)" class="triangle-float3"></path><path d="M1365.957,557.678C1389.181,555.962,1403.253,534.361,1414.13,513.77C1424.079,494.935,1430.259,473.404,1420.468,454.486C1409.936,434.136,1388.87,420.526,1365.957,420.689C1343.297,420.85,1324.651,435.954,1312.773,455.252C1300.169,475.73,1292.56,500.595,1303.641,521.936C1315.469,544.714,1340.361,559.57,1365.957,557.678" fill="rgba(33, 194, 132, 1)" class="triangle-float3"></path><path d="M1253.2912835680613 485.6300878897772L1354.3962074576054 619.8008535777224 1387.4620492560066 384.5251640002331z" fill="rgba(33, 194, 132, 1)" class="triangle-float1"></path></g><defs><mask id="SvgjsMask2542"><rect width="1440" height="560" fill="#ffffff"></rect></mask><style>
                @keyframes float1 {
                    0%{transform: translate(0, 0)}
                    50%{transform: translate(-10px, 0)}
                    100%{transform: translate(0, 0)}
                }

                .triangle-float1 {
                    animation: float1 5s infinite;
                }

                @keyframes float2 {
                    0%{transform: translate(0, 0)}
                    50%{transform: translate(-5px, -5px)}
                    100%{transform: translate(0, 0)}
                }

                .triangle-float2 {
                    animation: float2 4s infinite;
                }

                @keyframes float3 {
                    0%{transform: translate(0, 0)}
                    50%{transform: translate(0, -10px)}
                    100%{transform: translate(0, 0)}
                }

                .triangle-float3 {
                    animation: float3 6s infinite;
                }
            </style></defs></svg>